<svg width="1720" height="860" viewBox="0 0 1720 860" fill="none" xmlns="http://www.w3.org/2000/svg">
<circle cx="148" cy="404" r="147" fill="#FFF0FE" stroke="#353535" stroke-width="2"/>
<circle cx="504" cy="404" r="147" fill="#FFF0FE" stroke="#353535" stroke-width="2"/>
<circle cx="504" cy="404" r="119.5" fill="#FFF0FE" stroke="#353535" stroke-width="21"/>
<circle cx="504" cy="405" r="83.5" fill="#FFF0FE" stroke="#353535" stroke-width="21"/>
<circle cx="504" cy="404" r="48.5" fill="#FFF0FE" stroke="#353535" stroke-width="21"/>
<circle cx="504" cy="404" r="18.5" fill="#FFF0FE" stroke="#353535" stroke-width="21"/>
<circle cx="860" cy="404" r="147" fill="#FFF0FE" stroke="#353535" stroke-width="2"/>
<circle cx="1216" cy="404" r="147" fill="#FFF0FE" stroke="#353535" stroke-width="2"/>
<circle cx="1572" cy="404" r="147" fill="#FFF0FE" stroke="#353535" stroke-width="2"/>
<path d="M1180.99 439H1188.14L1236.96 390.15L1229.82 383L1180.99 431.9V439.05V439ZM1171 449V427.75L1236.96 361.9C1237.96 361 1239.06 360.25 1240.26 359.75C1241.46 359.25 1242.76 359 1244.06 359C1245.36 359 1246.71 359.25 1247.96 359.75C1249.21 360.25 1250.31 361 1251.21 362L1258.1 369C1259.1 369.9 1259.85 371 1260.3 372.25C1260.75 373.5 1261 374.75 1261 376C1261 377.35 1260.75 378.6 1260.3 379.8C1259.85 381 1259.1 382.1 1258.1 383.1L1192.24 449H1171ZM1233.37 386.65L1229.87 383L1237.01 390.15L1233.37 386.65Z" fill="#FF94F4"/>
<path d="M1497.18 387.467L1521.46 363.183L1516.64 358.361L1497.18 377.822L1487.36 368.006L1482.54 372.828L1497.18 387.467ZM1477.89 404C1475.99 404 1474.38 403.311 1473.03 401.968C1471.69 400.624 1471 399.006 1471 397.111V348.889C1471 346.994 1471.69 345.376 1473.03 344.032C1474.38 342.689 1475.99 342 1477.89 342H1526.11C1528.01 342 1529.62 342.689 1530.97 344.032C1532.31 345.376 1533 346.994 1533 348.889V397.111C1533 399.006 1532.31 400.624 1530.97 401.968C1529.62 403.311 1528.01 404 1526.11 404H1477.89ZM1477.89 397.111H1526.11V348.889H1477.89V397.111Z" fill="#FF94F4"/>
<path d="M1497.18 463.467L1521.46 439.183L1516.64 434.361L1497.18 453.822L1487.36 444.006L1482.54 448.828L1497.18 463.467ZM1477.89 480C1475.99 480 1474.38 479.311 1473.03 477.968C1471.69 476.624 1471 475.006 1471 473.111V424.889C1471 422.994 1471.69 421.376 1473.03 420.032C1474.38 418.689 1475.99 418 1477.89 418H1526.11C1528.01 418 1529.62 418.689 1530.97 420.032C1532.31 421.376 1533 422.994 1533 424.889V473.111C1533 475.006 1532.31 476.624 1530.97 477.968C1529.62 479.311 1528.01 480 1526.11 480H1477.89ZM1477.89 473.111H1526.11V424.889H1477.89V473.111Z" fill="#FF94F4"/>
<path d="M860.062 467.66C857.393 467.66 854.91 467.032 852.738 465.714C850.566 464.395 848.828 462.636 847.586 460.439C844.172 460.439 841.255 459.183 838.834 456.733C836.414 454.284 835.172 451.333 835.172 447.879V425.585C829.09 421.503 824.186 416.103 820.524 409.383C816.862 402.664 815 395.379 815 387.529C815 374.844 819.345 364.105 828.097 355.251C836.848 346.396 847.462 342 860 342C872.538 342 883.152 346.396 891.903 355.251C900.655 364.105 905 374.844 905 387.529C905 395.567 903.138 402.915 899.476 409.509C895.814 416.103 890.91 421.44 884.828 425.522V447.816C884.828 451.27 883.586 454.221 881.166 456.671C878.745 459.12 875.828 460.376 872.414 460.376C871.172 462.574 869.434 464.332 867.262 465.651C865.09 466.97 862.669 467.598 859.938 467.598L860.062 467.66ZM847.648 447.879H872.476V442.227H847.648V447.879ZM847.648 435.947H872.476V429.981H847.648V435.947ZM846.407 417.421H855.407V400.466L841.752 386.65L848.269 380.056L860.062 391.988L871.855 380.056L878.372 386.65L864.717 400.466V417.421H873.717C879.303 414.721 883.834 410.702 887.372 405.427C890.91 400.152 892.648 394.186 892.648 387.592C892.648 378.36 889.483 370.573 883.152 364.168C876.821 357.762 869.124 354.56 860 354.56C850.876 354.56 843.179 357.762 836.848 364.168C830.517 370.573 827.352 378.36 827.352 387.592C827.352 394.186 829.09 400.152 832.628 405.427C836.166 410.702 840.697 414.721 846.283 417.421H846.407Z" fill="#FF94F4"/>
<path d="M147.955 455.455L141.443 449.617C133.898 442.79 127.611 436.907 122.671 431.967C117.731 427.027 113.778 422.581 110.859 418.674C107.94 414.766 105.919 411.129 104.751 407.85C103.584 404.572 103 401.204 103 397.746C103 390.695 105.38 384.811 110.096 380.096C114.811 375.38 120.695 373 127.746 373C131.653 373 135.335 373.808 138.883 375.47C142.431 377.132 145.44 379.422 148 382.431C150.56 379.422 153.569 377.132 157.117 375.47C160.665 373.808 164.347 373 168.255 373C175.305 373 181.189 375.38 185.904 380.096C190.62 384.811 193 390.695 193 397.746C193 401.204 192.416 404.572 191.249 407.85C190.081 411.129 188.06 414.766 185.141 418.674C182.222 422.581 178.269 427.027 173.329 431.967C168.389 436.907 162.147 442.79 154.557 449.617L148.045 455.455H147.955ZM147.955 443.329C155.141 436.907 161.069 431.383 165.695 426.758C170.32 422.132 174.003 418.135 176.698 414.722C179.392 411.308 181.278 408.299 182.311 405.605C183.344 402.91 183.883 400.305 183.883 397.701C183.883 393.21 182.401 389.482 179.392 386.473C176.383 383.464 172.656 381.982 168.165 381.982C164.662 381.982 161.383 382.97 158.374 384.946C155.365 386.922 153.299 389.437 152.177 392.536H143.644C142.521 389.482 140.455 386.922 137.446 384.946C134.437 382.97 131.204 381.982 127.656 381.982C123.165 381.982 119.437 383.464 116.428 386.473C113.419 389.482 111.937 393.21 111.937 397.701C111.937 400.305 112.476 402.955 113.509 405.605C114.542 408.254 116.428 411.308 119.123 414.722C121.817 418.135 125.5 422.132 130.126 426.758C134.751 431.383 140.68 436.862 147.865 443.329H147.955Z" fill="#FF94F4"/>
<path d="M501.172 402.172C499.609 403.734 499.609 406.266 501.172 407.828C502.734 409.391 505.266 409.391 506.828 407.828L501.172 402.172ZM506.828 407.828L616.828 297.828L611.172 292.172L501.172 402.172L506.828 407.828Z" fill="#FF94F4"/>
<path d="M614 268V295H640.5" stroke="#FF94F4" stroke-width="8"/>
<path d="M601 282V309H627.5" stroke="#FF94F4" stroke-width="8"/>
<line x1="1547" y1="371.5" x2="1665" y2="371.5" stroke="black" stroke-width="3"/>
<line x1="1547" y1="447.5" x2="1665" y2="447.5" stroke="black" stroke-width="3"/>
<path d="M87.9602 191.99V196.4H81.7802V199.73H87.6302V204.14H81.7802V207.59H87.9602V212H76.5902V191.99H87.9602ZM90.818 212V198.59H95.618V200.21C96.758 198.83 98.318 198.35 99.638 198.35C100.598 198.35 101.498 198.56 102.218 198.95C103.208 199.46 103.748 200.21 104.078 200.87C104.618 199.91 105.308 199.34 105.908 199.01C106.868 198.47 107.798 198.35 108.698 198.35C109.688 198.35 111.308 198.5 112.418 199.58C113.618 200.75 113.678 202.34 113.678 203.27V212H108.878V205.37C108.878 203.96 108.728 203 108.188 202.49C107.918 202.25 107.558 202.04 106.928 202.04C106.388 202.04 105.938 202.19 105.518 202.58C104.708 203.36 104.648 204.47 104.648 205.13V212H99.848V205.37C99.848 204.08 99.758 203.06 99.218 202.49C98.798 202.04 98.258 201.95 97.778 201.95C97.268 201.95 96.848 202.04 96.458 202.43C95.618 203.24 95.618 204.53 95.618 205.37V212H90.818ZM121.809 210.71V218.87H117.009V198.59H121.809V200.06C122.649 199.01 123.939 198.14 125.919 198.14C127.989 198.14 129.609 199.01 130.689 200.09C131.799 201.2 132.729 202.97 132.729 205.28C132.729 207.53 131.859 209.33 130.569 210.59C129.069 212.06 127.329 212.45 125.979 212.45C125.109 212.45 123.309 212.27 121.809 210.71ZM124.749 202.22C123.939 202.22 123.159 202.55 122.589 203.12C121.989 203.72 121.659 204.59 121.659 205.34C121.659 206.12 122.079 206.96 122.589 207.47C123.159 208.04 123.939 208.37 124.749 208.37C125.589 208.37 126.339 208.04 126.879 207.47C127.389 206.96 127.809 206.15 127.809 205.34C127.809 204.59 127.479 203.72 126.879 203.12C126.339 202.55 125.589 202.22 124.749 202.22ZM145.876 199.88V198.59H150.676V212H145.876V210.53C144.766 212.06 143.026 212.45 141.706 212.45C140.266 212.45 138.496 212.03 136.876 210.32C135.586 208.94 134.956 207.41 134.956 205.4C134.956 202.88 135.946 201.11 137.026 200.03C138.166 198.89 139.936 198.14 141.856 198.14C144.016 198.14 145.306 199.25 145.876 199.88ZM142.936 202.22C142.336 202.22 141.526 202.43 140.836 203.09C140.176 203.72 139.876 204.59 139.876 205.28C139.876 206.06 140.206 206.9 140.806 207.47C141.316 207.95 142.156 208.37 142.966 208.37C143.746 208.37 144.526 208.04 145.126 207.44C145.546 207.02 146.026 206.36 146.026 205.28C146.026 204.65 145.846 203.81 145.096 203.09C144.646 202.67 143.956 202.22 142.936 202.22ZM162.022 202.52H159.292V212H154.492V202.52H152.962V198.59H154.492V194.18H159.292V198.59H162.022V202.52ZM163.826 212V190.13H168.626V200.27C168.986 199.82 169.556 199.28 170.126 198.95C171.056 198.41 172.046 198.29 172.886 198.29C174.776 198.29 176.036 198.92 176.846 199.73C178.046 200.93 178.106 202.19 178.106 203.48V212H173.306V205.22C173.306 204.23 173.246 203.21 172.706 202.61C172.256 202.1 171.656 202.04 171.176 202.04C170.666 202.04 169.976 202.13 169.436 202.61C169.016 203 168.626 203.72 168.626 204.8V212H163.826ZM180.613 198.59H185.413V212H180.613V198.59ZM180.313 193.01C180.313 191.51 181.513 190.31 183.013 190.31C184.513 190.31 185.713 191.51 185.713 193.01C185.713 194.51 184.513 195.71 183.013 195.71C181.513 195.71 180.313 194.51 180.313 193.01ZM201.93 198.59L195.66 208.07H201.27V212H187.62L193.95 202.52H188.55V198.59H201.93ZM218.388 205.67V206.18H208.398C208.398 206.9 208.668 207.86 209.238 208.43C209.538 208.73 210.138 209.09 211.218 209.09C211.338 209.09 212.178 209.06 212.778 208.73C213.078 208.55 213.408 208.25 213.618 207.83H218.208C217.998 208.58 217.578 209.63 216.588 210.59C215.598 211.55 214.038 212.45 211.128 212.45C209.358 212.45 207.228 212.06 205.578 210.41C204.708 209.54 203.598 207.89 203.598 205.34C203.598 203.09 204.438 201.29 205.608 200.15C206.718 199.07 208.458 198.2 211.098 198.2C212.658 198.2 214.668 198.53 216.258 200.03C218.148 201.83 218.388 204.17 218.388 205.67ZM208.548 203.42H213.978C213.858 202.91 213.558 202.34 213.198 201.98C212.568 201.35 211.698 201.26 211.218 201.26C210.408 201.26 209.778 201.47 209.268 201.98C208.938 202.34 208.638 202.82 208.548 203.42Z" fill="black"/>
<path d="M467.404 212H460.144V191.99H466.954C468.964 191.99 472.324 192.26 474.904 194.75C477.244 197 477.694 199.88 477.694 202.04C477.694 204.68 477.034 207.02 475.084 208.97C473.494 210.56 470.824 212 467.404 212ZM465.334 196.4V207.59H466.384C467.644 207.59 469.414 207.47 470.764 206.15C471.424 205.52 472.294 204.26 472.294 202.04C472.294 200.18 471.724 198.59 470.734 197.66C469.504 196.52 467.884 196.4 466.594 196.4H465.334ZM494.773 205.67V206.18H484.783C484.783 206.9 485.053 207.86 485.623 208.43C485.923 208.73 486.523 209.09 487.603 209.09C487.723 209.09 488.563 209.06 489.163 208.73C489.463 208.55 489.793 208.25 490.003 207.83H494.593C494.383 208.58 493.963 209.63 492.973 210.59C491.983 211.55 490.423 212.45 487.513 212.45C485.743 212.45 483.613 212.06 481.963 210.41C481.093 209.54 479.983 207.89 479.983 205.34C479.983 203.09 480.823 201.29 481.993 200.15C483.103 199.07 484.843 198.2 487.483 198.2C489.043 198.2 491.053 198.53 492.643 200.03C494.533 201.83 494.773 204.17 494.773 205.67ZM484.933 203.42H490.363C490.243 202.91 489.943 202.34 489.583 201.98C488.953 201.35 488.083 201.26 487.603 201.26C486.793 201.26 486.163 201.47 485.653 201.98C485.323 202.34 485.023 202.82 484.933 203.42ZM506.066 202.52H502.706V212H497.906V202.52H496.226V198.59H497.906V196.94C497.906 195.14 498.146 193.22 499.736 191.69C501.026 190.43 503.006 189.8 505.016 189.8C506.906 189.8 509.126 190.37 510.386 191.6C511.226 192.41 512.066 193.88 512.066 196.1V196.79H507.266V196.34C507.266 196.22 507.266 195.14 506.666 194.54C506.276 194.15 505.616 193.94 504.986 193.94C504.386 193.94 503.756 194.18 503.336 194.63C502.766 195.23 502.706 195.95 502.706 196.7V198.59H506.066V202.52ZM507.266 198.59H512.066V212H507.266V198.59ZM515.065 212V198.59H519.865V200.27C521.185 198.53 522.955 198.29 524.125 198.29C525.505 198.29 526.975 198.62 528.085 199.73C529.225 200.87 529.345 202.01 529.345 203.48V212H524.545V205.22C524.545 204.44 524.575 203.27 523.945 202.61C523.495 202.13 522.895 202.04 522.415 202.04C521.665 202.04 521.035 202.31 520.645 202.67C520.165 203.12 519.865 203.99 519.865 204.8V212H515.065ZM546.834 205.67V206.18H536.844C536.844 206.9 537.114 207.86 537.684 208.43C537.984 208.73 538.584 209.09 539.664 209.09C539.784 209.09 540.624 209.06 541.224 208.73C541.524 208.55 541.854 208.25 542.064 207.83H546.654C546.444 208.58 546.024 209.63 545.034 210.59C544.044 211.55 542.484 212.45 539.574 212.45C537.804 212.45 535.674 212.06 534.024 210.41C533.154 209.54 532.044 207.89 532.044 205.34C532.044 203.09 532.884 201.29 534.054 200.15C535.164 199.07 536.904 198.2 539.544 198.2C541.104 198.2 543.114 198.53 544.704 200.03C546.594 201.83 546.834 204.17 546.834 205.67ZM536.994 203.42H542.424C542.304 202.91 542.004 202.34 541.644 201.98C541.014 201.35 540.144 201.26 539.664 201.26C538.854 201.26 538.224 201.47 537.714 201.98C537.384 202.34 537.084 202.82 536.994 203.42Z" fill="black"/>
<path d="M816.497 191.99H821.687V212H816.497V191.99ZM840.632 190.13V212H835.832V210.53C834.482 212.27 832.712 212.45 831.782 212.45C829.862 212.45 828.332 211.82 827.072 210.59C825.722 209.27 824.912 207.38 824.912 205.25C824.912 202.97 825.872 201.11 827.102 199.94C828.422 198.68 830.192 198.14 831.842 198.14C833.672 198.14 834.962 198.95 835.832 199.88V190.13H840.632ZM832.892 208.37C833.672 208.37 834.452 208.01 834.962 207.56C835.592 206.99 835.982 206.09 835.982 205.28C835.982 204.53 835.562 203.63 835.082 203.12C834.542 202.55 833.792 202.22 832.892 202.22C831.872 202.22 831.182 202.67 830.762 203.09C830.222 203.63 829.832 204.47 829.832 205.37C829.832 206.06 830.132 206.84 830.762 207.47C831.422 208.13 832.202 208.37 832.892 208.37ZM858.158 205.67V206.18H848.168C848.168 206.9 848.438 207.86 849.008 208.43C849.308 208.73 849.908 209.09 850.988 209.09C851.108 209.09 851.948 209.06 852.548 208.73C852.848 208.55 853.178 208.25 853.388 207.83H857.978C857.768 208.58 857.348 209.63 856.358 210.59C855.368 211.55 853.808 212.45 850.898 212.45C849.128 212.45 846.998 212.06 845.348 210.41C844.478 209.54 843.368 207.89 843.368 205.34C843.368 203.09 844.208 201.29 845.378 200.15C846.488 199.07 848.228 198.2 850.868 198.2C852.428 198.2 854.438 198.53 856.028 200.03C857.918 201.83 858.158 204.17 858.158 205.67ZM848.318 203.42H853.748C853.628 202.91 853.328 202.34 852.968 201.98C852.338 201.35 851.468 201.26 850.988 201.26C850.178 201.26 849.548 201.47 849.038 201.98C848.708 202.34 848.408 202.82 848.318 203.42ZM871.31 199.88V198.59H876.11V212H871.31V210.53C870.2 212.06 868.46 212.45 867.14 212.45C865.7 212.45 863.93 212.03 862.31 210.32C861.02 208.94 860.39 207.41 860.39 205.4C860.39 202.88 861.38 201.11 862.46 200.03C863.6 198.89 865.37 198.14 867.29 198.14C869.45 198.14 870.74 199.25 871.31 199.88ZM868.37 202.22C867.77 202.22 866.96 202.43 866.27 203.09C865.61 203.72 865.31 204.59 865.31 205.28C865.31 206.06 865.64 206.9 866.24 207.47C866.75 207.95 867.59 208.37 868.4 208.37C869.18 208.37 869.96 208.04 870.56 207.44C870.98 207.02 871.46 206.36 871.46 205.28C871.46 204.65 871.28 203.81 870.53 203.09C870.08 202.67 869.39 202.22 868.37 202.22ZM887.457 202.52H884.727V212H879.927V202.52H878.397V198.59H879.927V194.18H884.727V198.59H887.457V202.52ZM903.48 205.67V206.18H893.49C893.49 206.9 893.76 207.86 894.33 208.43C894.63 208.73 895.23 209.09 896.31 209.09C896.43 209.09 897.27 209.06 897.87 208.73C898.17 208.55 898.5 208.25 898.71 207.83H903.3C903.09 208.58 902.67 209.63 901.68 210.59C900.69 211.55 899.13 212.45 896.22 212.45C894.45 212.45 892.32 212.06 890.67 210.41C889.8 209.54 888.69 207.89 888.69 205.34C888.69 203.09 889.53 201.29 890.7 200.15C891.81 199.07 893.55 198.2 896.19 198.2C897.75 198.2 899.76 198.53 901.35 200.03C903.24 201.83 903.48 204.17 903.48 205.67ZM893.64 203.42H899.07C898.95 202.91 898.65 202.34 898.29 201.98C897.66 201.35 896.79 201.26 896.31 201.26C895.5 201.26 894.87 201.47 894.36 201.98C894.03 202.34 893.73 202.82 893.64 203.42Z" fill="black"/>
<path d="M1560.02 196.4H1555.76V212H1550.57V196.4H1546.31V191.99H1560.02V196.4ZM1574.6 205.67V206.18H1564.61C1564.61 206.9 1564.88 207.86 1565.45 208.43C1565.75 208.73 1566.35 209.09 1567.43 209.09C1567.55 209.09 1568.39 209.06 1568.99 208.73C1569.29 208.55 1569.62 208.25 1569.83 207.83H1574.42C1574.21 208.58 1573.79 209.63 1572.8 210.59C1571.81 211.55 1570.25 212.45 1567.34 212.45C1565.57 212.45 1563.44 212.06 1561.79 210.41C1560.92 209.54 1559.81 207.89 1559.81 205.34C1559.81 203.09 1560.65 201.29 1561.82 200.15C1562.93 199.07 1564.67 198.2 1567.31 198.2C1568.87 198.2 1570.88 198.53 1572.47 200.03C1574.36 201.83 1574.6 204.17 1574.6 205.67ZM1564.76 203.42H1570.19C1570.07 202.91 1569.77 202.34 1569.41 201.98C1568.78 201.35 1567.91 201.26 1567.43 201.26C1566.62 201.26 1565.99 201.47 1565.48 201.98C1565.15 202.34 1564.85 202.82 1564.76 203.42ZM1576.53 210.89L1578.24 207.56C1578.81 207.98 1579.5 208.34 1580.16 208.55C1580.76 208.76 1581.51 208.88 1582.02 208.88C1582.38 208.88 1582.95 208.79 1583.25 208.52C1583.46 208.31 1583.49 208.13 1583.49 207.89C1583.49 207.68 1583.46 207.47 1583.25 207.29C1582.95 207.02 1582.47 206.93 1581.99 206.81L1580.73 206.51C1580.07 206.36 1579.11 206.12 1578.39 205.34C1577.88 204.8 1577.52 204.05 1577.52 203.03C1577.52 201.74 1578.03 200.54 1578.78 199.76C1579.8 198.71 1581.6 198.14 1583.58 198.14C1585.56 198.14 1587.09 198.68 1587.87 199.01L1586.25 202.07C1585.59 201.77 1584.6 201.41 1583.73 201.41C1583.25 201.41 1582.92 201.5 1582.62 201.68C1582.35 201.83 1582.2 202.04 1582.2 202.34C1582.2 202.76 1582.47 202.97 1582.77 203.09C1583.22 203.27 1583.61 203.27 1584.36 203.48L1585.23 203.72C1585.86 203.9 1586.82 204.38 1587.21 204.77C1587.87 205.4 1588.23 206.45 1588.23 207.44C1588.23 209.06 1587.54 210.14 1586.88 210.77C1585.32 212.33 1583.04 212.45 1581.93 212.45C1580.73 212.45 1578.84 212.3 1576.53 210.89ZM1598.74 202.52H1596.01V212H1591.21V202.52H1589.68V198.59H1591.21V194.18H1596.01V198.59H1598.74V202.52Z" fill="black"/>
<path d="M1156.88 205.37H1153.61V212H1148.42V191.99H1156.7C1158.44 191.99 1160.24 192.32 1161.77 193.79C1163.33 195.29 1163.63 196.97 1163.63 198.65C1163.63 200.24 1163.42 202.1 1161.86 203.63C1160.3 205.16 1158.44 205.37 1156.88 205.37ZM1153.61 196.19V201.17H1155.35C1155.89 201.17 1156.91 201.11 1157.54 200.54C1158.17 200 1158.2 199.19 1158.2 198.71C1158.2 198.17 1158.14 197.45 1157.6 196.91C1157 196.28 1156.04 196.19 1155.38 196.19H1153.61ZM1165.93 212V198.59H1170.73V200.78C1171.21 199.88 1171.9 199.28 1172.62 198.92C1173.34 198.53 1174.21 198.38 1175.11 198.38C1175.23 198.38 1175.44 198.41 1176.07 198.44V202.97C1175.83 202.85 1175.17 202.49 1174 202.49C1173.37 202.49 1172.5 202.58 1171.81 203.21C1170.79 204.14 1170.73 205.55 1170.73 206.27V212H1165.93ZM1185.15 202.22C1184.37 202.22 1183.53 202.58 1182.99 203.09C1182.39 203.66 1182.06 204.5 1182.06 205.28C1182.06 206.09 1182.45 206.87 1182.99 207.41C1183.56 207.98 1184.34 208.31 1185.15 208.31C1185.93 208.31 1186.71 207.98 1187.28 207.41C1187.88 206.84 1188.21 206.06 1188.21 205.28C1188.21 204.56 1187.88 203.69 1187.28 203.09C1186.74 202.58 1185.9 202.22 1185.15 202.22ZM1193.19 205.28C1193.19 207.08 1192.59 208.79 1191.12 210.23C1189.35 211.97 1187.28 212.45 1185.12 212.45C1183.17 212.45 1181.01 212.06 1179.15 210.23C1177.68 208.79 1177.08 207.08 1177.08 205.28C1177.08 202.88 1178.16 201.32 1179.15 200.36C1180.26 199.28 1182.21 198.14 1185.12 198.14C1188.09 198.14 1190.01 199.31 1191.12 200.36C1192.11 201.32 1193.19 202.88 1193.19 205.28ZM1204 202.52H1201.27V212H1196.47V202.52H1194.94V198.59H1196.47V194.18H1201.27V198.59H1204V202.52ZM1213.33 202.22C1212.55 202.22 1211.71 202.58 1211.17 203.09C1210.57 203.66 1210.24 204.5 1210.24 205.28C1210.24 206.09 1210.63 206.87 1211.17 207.41C1211.74 207.98 1212.52 208.31 1213.33 208.31C1214.11 208.31 1214.89 207.98 1215.46 207.41C1216.06 206.84 1216.39 206.06 1216.39 205.28C1216.39 204.56 1216.06 203.69 1215.46 203.09C1214.92 202.58 1214.08 202.22 1213.33 202.22ZM1221.37 205.28C1221.37 207.08 1220.77 208.79 1219.3 210.23C1217.53 211.97 1215.46 212.45 1213.3 212.45C1211.35 212.45 1209.19 212.06 1207.33 210.23C1205.86 208.79 1205.26 207.08 1205.26 205.28C1205.26 202.88 1206.34 201.32 1207.33 200.36C1208.44 199.28 1210.39 198.14 1213.3 198.14C1216.27 198.14 1218.19 199.31 1219.3 200.36C1220.29 201.32 1221.37 202.88 1221.37 205.28ZM1232.18 202.52H1229.45V212H1224.65V202.52H1223.12V198.59H1224.65V194.18H1229.45V198.59H1232.18V202.52ZM1235.08 218.87L1239.58 210.17L1233.1 198.59H1238.68L1242.25 205.46L1245.73 198.59H1251.22L1240.45 218.87H1235.08ZM1257.65 210.71V218.87H1252.85V198.59H1257.65V200.06C1258.49 199.01 1259.78 198.14 1261.76 198.14C1263.83 198.14 1265.45 199.01 1266.53 200.09C1267.64 201.2 1268.57 202.97 1268.57 205.28C1268.57 207.53 1267.7 209.33 1266.41 210.59C1264.91 212.06 1263.17 212.45 1261.82 212.45C1260.95 212.45 1259.15 212.27 1257.65 210.71ZM1260.59 202.22C1259.78 202.22 1259 202.55 1258.43 203.12C1257.83 203.72 1257.5 204.59 1257.5 205.34C1257.5 206.12 1257.92 206.96 1258.43 207.47C1259 208.04 1259.78 208.37 1260.59 208.37C1261.43 208.37 1262.18 208.04 1262.72 207.47C1263.23 206.96 1263.65 206.15 1263.65 205.34C1263.65 204.59 1263.32 203.72 1262.72 203.12C1262.18 202.55 1261.43 202.22 1260.59 202.22ZM1285.56 205.67V206.18H1275.57C1275.57 206.9 1275.84 207.86 1276.41 208.43C1276.71 208.73 1277.31 209.09 1278.39 209.09C1278.51 209.09 1279.35 209.06 1279.95 208.73C1280.25 208.55 1280.58 208.25 1280.79 207.83H1285.38C1285.17 208.58 1284.75 209.63 1283.76 210.59C1282.77 211.55 1281.21 212.45 1278.3 212.45C1276.53 212.45 1274.4 212.06 1272.75 210.41C1271.88 209.54 1270.77 207.89 1270.77 205.34C1270.77 203.09 1271.61 201.29 1272.78 200.15C1273.89 199.07 1275.63 198.2 1278.27 198.2C1279.83 198.2 1281.84 198.53 1283.43 200.03C1285.32 201.83 1285.56 204.17 1285.56 205.67ZM1275.72 203.42H1281.15C1281.03 202.91 1280.73 202.34 1280.37 201.98C1279.74 201.35 1278.87 201.26 1278.39 201.26C1277.58 201.26 1276.95 201.47 1276.44 201.98C1276.11 202.34 1275.81 202.82 1275.72 203.42Z" fill="black"/>
<path d="M344.768 405.768C345.744 404.791 345.744 403.209 344.768 402.232L328.858 386.322C327.882 385.346 326.299 385.346 325.322 386.322C324.346 387.299 324.346 388.882 325.322 389.858L339.464 404L325.322 418.142C324.346 419.118 324.346 420.701 325.322 421.678C326.299 422.654 327.882 422.654 328.858 421.678L344.768 405.768ZM296 406.5H343V401.5H296V406.5Z" fill="#E8BEE8"/>
<path d="M700.768 406.768C701.744 405.791 701.744 404.209 700.768 403.232L684.858 387.322C683.882 386.346 682.299 386.346 681.322 387.322C680.346 388.299 680.346 389.882 681.322 390.858L695.464 405L681.322 419.142C680.346 420.118 680.346 421.701 681.322 422.678C682.299 423.654 683.882 423.654 684.858 422.678L700.768 406.768ZM652 407.5H699V402.5H652V407.5Z" fill="#E8BEE8"/>
<path d="M1056.77 405.768C1057.74 404.791 1057.74 403.209 1056.77 402.232L1040.86 386.322C1039.88 385.346 1038.3 385.346 1037.32 386.322C1036.35 387.299 1036.35 388.882 1037.32 389.858L1051.46 404L1037.32 418.142C1036.35 419.118 1036.35 420.701 1037.32 421.678C1038.3 422.654 1039.88 422.654 1040.86 421.678L1056.77 405.768ZM1008 406.5H1055V401.5H1008V406.5Z" fill="#E8BEE8"/>
<path d="M1412.77 406.768C1413.74 405.791 1413.74 404.209 1412.77 403.232L1396.86 387.322C1395.88 386.346 1394.3 386.346 1393.32 387.322C1392.35 388.299 1392.35 389.882 1393.32 390.858L1407.46 405L1393.32 419.142C1392.35 420.118 1392.35 421.701 1393.32 422.678C1394.3 423.654 1395.88 423.654 1396.86 422.678L1412.77 406.768ZM1364 407.5H1411V402.5H1364V407.5Z" fill="#E8BEE8"/>
<path d="M1573 718V720.5H1575.5V718H1573ZM502 718H499.5V720.5H502V718ZM503.768 575.066C502.791 574.089 501.209 574.089 500.232 575.066L484.322 590.975C483.346 591.952 483.346 593.535 484.322 594.511C485.299 595.487 486.882 595.487 487.858 594.511L502 580.369L516.142 594.511C517.118 595.487 518.701 595.487 519.678 594.511C520.654 593.535 520.654 591.952 519.678 590.975L503.768 575.066ZM499.5 576.833V581.875H504.5V576.833H499.5ZM499.5 591.958V602.042H504.5V591.958H499.5ZM499.5 612.125V622.208H504.5V612.125H499.5ZM499.5 632.292V642.375H504.5V632.292H499.5ZM499.5 652.458V662.542H504.5V652.458H499.5ZM499.5 672.625V682.708H504.5V672.625H499.5ZM499.5 692.792V702.875H504.5V692.792H499.5ZM499.5 712.958V718H504.5V712.958H499.5ZM502 720.5H506.958V715.5H502V720.5ZM516.875 720.5H526.792V715.5H516.875V720.5ZM536.708 720.5H546.625V715.5H536.708V720.5ZM556.542 720.5H566.458V715.5H556.542V720.5ZM576.375 720.5H586.292V715.5H576.375V720.5ZM596.208 720.5H606.125V715.5H596.208V720.5ZM616.042 720.5H625.958V715.5H616.042V720.5ZM635.875 720.5H645.792V715.5H635.875V720.5ZM655.708 720.5H665.625V715.5H655.708V720.5ZM675.542 720.5H685.458V715.5H675.542V720.5ZM695.375 720.5H705.292V715.5H695.375V720.5ZM715.208 720.5H725.125V715.5H715.208V720.5ZM735.042 720.5H744.958V715.5H735.042V720.5ZM754.875 720.5H764.792V715.5H754.875V720.5ZM774.708 720.5H784.625V715.5H774.708V720.5ZM794.542 720.5H804.458V715.5H794.542V720.5ZM814.375 720.5H824.292V715.5H814.375V720.5ZM834.208 720.5H844.125V715.5H834.208V720.5ZM854.042 720.5H863.958V715.5H854.042V720.5ZM873.875 720.5H883.792V715.5H873.875V720.5ZM893.708 720.5H903.625V715.5H893.708V720.5ZM913.542 720.5H923.458V715.5H913.542V720.5ZM933.375 720.5H943.292V715.5H933.375V720.5ZM953.208 720.5H963.125V715.5H953.208V720.5ZM973.042 720.5H982.958V715.5H973.042V720.5ZM992.875 720.5H1002.79V715.5H992.875V720.5ZM1012.71 720.5H1022.62V715.5H1012.71V720.5ZM1032.54 720.5H1042.46V715.5H1032.54V720.5ZM1052.37 720.5H1062.29V715.5H1052.37V720.5ZM1072.21 720.5H1082.12V715.5H1072.21V720.5ZM1092.04 720.5H1101.96V715.5H1092.04V720.5ZM1111.88 720.5H1121.79V715.5H1111.88V720.5ZM1131.71 720.5H1141.63V715.5H1131.71V720.5ZM1151.54 720.5H1161.46V715.5H1151.54V720.5ZM1171.38 720.5H1181.29V715.5H1171.38V720.5ZM1191.21 720.5H1201.13V715.5H1191.21V720.5ZM1211.04 720.5H1220.96V715.5H1211.04V720.5ZM1230.88 720.5H1240.79V715.5H1230.88V720.5ZM1250.71 720.5H1260.63V715.5H1250.71V720.5ZM1270.54 720.5H1280.46V715.5H1270.54V720.5ZM1290.38 720.5H1300.29V715.5H1290.38V720.5ZM1310.21 720.5H1320.13V715.5H1310.21V720.5ZM1330.04 720.5H1339.96V715.5H1330.04V720.5ZM1349.88 720.5H1359.79V715.5H1349.88V720.5ZM1369.71 720.5H1379.63V715.5H1369.71V720.5ZM1389.54 720.5H1399.46V715.5H1389.54V720.5ZM1409.38 720.5H1419.29V715.5H1409.38V720.5ZM1429.21 720.5H1439.13V715.5H1429.21V720.5ZM1449.04 720.5H1458.96V715.5H1449.04V720.5ZM1468.88 720.5H1478.79V715.5H1468.88V720.5ZM1488.71 720.5H1498.63V715.5H1488.71V720.5ZM1508.54 720.5H1518.46V715.5H1508.54V720.5ZM1528.38 720.5H1538.29V715.5H1528.38V720.5ZM1548.21 720.5H1558.13V715.5H1548.21V720.5ZM1568.04 720.5H1573V715.5H1568.04V720.5ZM1575.5 718V713.188H1570.5V718H1575.5ZM1575.5 703.562V693.938H1570.5V703.562H1575.5ZM1575.5 684.312V674.688H1570.5V684.312H1575.5ZM1575.5 665.062V655.438H1570.5V665.062H1575.5ZM1575.5 645.812V636.188H1570.5V645.812H1575.5ZM1575.5 626.562V616.938H1570.5V626.562H1575.5ZM1575.5 607.312V597.688H1570.5V607.312H1575.5ZM1575.5 588.062V578.438H1570.5V588.062H1575.5ZM1575.5 568.812V564H1570.5V568.812H1575.5Z" fill="#757575" fill-opacity="0.466667"/>
<path d="M1212.5 658.5V661H1215V658.5H1212.5ZM860 658.5H857.5V661H860V658.5ZM861.768 580.232C860.791 579.256 859.209 579.256 858.232 580.232L842.322 596.142C841.346 597.118 841.346 598.701 842.322 599.678C843.299 600.654 844.882 600.654 845.858 599.678L860 585.536L874.142 599.678C875.118 600.654 876.701 600.654 877.678 599.678C878.654 598.701 878.654 597.118 877.678 596.142L861.768 580.232ZM857.5 582V586.781H862.5V582H857.5ZM857.5 596.344V605.906H862.5V596.344H857.5ZM857.5 615.469V625.031H862.5V615.469H857.5ZM857.5 634.594V644.156H862.5V634.594H857.5ZM857.5 653.719V658.5H862.5V653.719H857.5ZM860 661H864.896V656H860V661ZM874.688 661H884.479V656H874.688V661ZM894.271 661H904.063V656H894.271V661ZM913.854 661H923.646V656H913.854V661ZM933.438 661H943.229V656H933.438V661ZM953.021 661H962.812V656H953.021V661ZM972.604 661H982.396V656H972.604V661ZM992.188 661H1001.98V656H992.188V661ZM1011.77 661H1021.56V656H1011.77V661ZM1031.35 661H1041.15V656H1031.35V661ZM1050.94 661H1060.73V656H1050.94V661ZM1070.52 661H1080.31V656H1070.52V661ZM1090.1 661H1099.9V656H1090.1V661ZM1109.69 661H1119.48V656H1109.69V661ZM1129.27 661H1139.06V656H1129.27V661ZM1148.85 661H1158.65V656H1148.85V661ZM1168.44 661H1178.23V656H1168.44V661ZM1188.02 661H1197.81V656H1188.02V661ZM1207.6 661H1212.5V656H1207.6V661ZM1215 658.5V653.625H1210V658.5H1215ZM1215 643.875V634.125H1210V643.875H1215ZM1215 624.375V614.625H1210V624.375H1215ZM1215 604.875V595.125H1210V604.875H1215ZM1215 585.375V575.625H1210V585.375H1215ZM1215 565.875V561H1210V565.875H1215Z" fill="#757575" fill-opacity="0.466667"/>
<path d="M1566 3H1568.5V0.5H1566V3ZM150 3V0.5H147.5V3H150ZM148.232 134.768C149.209 135.744 150.791 135.744 151.768 134.768L167.678 118.858C168.654 117.882 168.654 116.299 167.678 115.322C166.701 114.346 165.118 114.346 164.142 115.322L150 129.464L135.858 115.322C134.882 114.346 133.299 114.346 132.322 115.322C131.346 116.299 131.346 117.882 132.322 118.858L148.232 134.768ZM152.5 133V128.357H147.5V133H152.5ZM152.5 119.071V109.786H147.5V119.071H152.5ZM152.5 100.5V91.2143H147.5V100.5H152.5ZM152.5 81.9286V72.6429H147.5V81.9286H152.5ZM152.5 63.3571V54.0714H147.5V63.3571H152.5ZM152.5 44.7857V35.5H147.5V44.7857H152.5ZM152.5 26.2143V16.9286H147.5V26.2143H152.5ZM152.5 7.64287V3H147.5V7.64287H152.5ZM150 5.5H154.986V0.5H150V5.5ZM164.958 5.5H174.93V0.5H164.958V5.5ZM184.901 5.5H194.873V0.5H184.901V5.5ZM204.845 5.5H214.817V0.5H204.845V5.5ZM224.789 5.5H234.761V0.5H224.789V5.5ZM244.732 5.5H254.704V0.5H244.732V5.5ZM264.676 5.5H274.648V0.5H264.676V5.5ZM284.62 5.5H294.592V0.5H284.62V5.5ZM304.563 5.5H314.535V0.5H304.563V5.5ZM324.507 5.5H334.479V0.5H324.507V5.5ZM344.451 5.5H354.423V0.5H344.451V5.5ZM364.394 5.5H374.366V0.5H364.394V5.5ZM384.338 5.5H394.31V0.5H384.338V5.5ZM404.282 5.5H414.254V0.5H404.282V5.5ZM424.225 5.5H434.197V0.5H424.225V5.5ZM444.169 5.5H454.141V0.5H444.169V5.5ZM464.113 5.5H474.085V0.5H464.113V5.5ZM484.056 5.5H494.028V0.5H484.056V5.5ZM504 5.5H513.972V0.5H504V5.5ZM523.944 5.5H533.916V0.5H523.944V5.5ZM543.887 5.5H553.859V0.5H543.887V5.5ZM563.831 5.5H573.803V0.5H563.831V5.5ZM583.775 5.5H593.747V0.5H583.775V5.5ZM603.718 5.5H613.69V0.5H603.718V5.5ZM623.662 5.5H633.634V0.5H623.662V5.5ZM643.606 5.5H653.577V0.5H643.606V5.5ZM663.549 5.5H673.521V0.5H663.549V5.5ZM683.493 5.5H693.465V0.5H683.493V5.5ZM703.437 5.5H713.408V0.5H703.437V5.5ZM723.38 5.5H733.352V0.5H723.38V5.5ZM743.324 5.5H753.296V0.5H743.324V5.5ZM763.267 5.5H773.239V0.5H763.267V5.5ZM783.211 5.5H793.183V0.5H783.211V5.5ZM803.155 5.5H813.126V0.5H803.155V5.5ZM823.098 5.5H833.07V0.5H823.098V5.5ZM843.042 5.5H853.014V0.5H843.042V5.5ZM862.985 5.5H872.957V0.5H862.985V5.5ZM882.929 5.5H892.901V0.5H882.929V5.5ZM902.873 5.5H912.844V0.5H902.873V5.5ZM922.816 5.5H932.788V0.5H922.816V5.5ZM942.76 5.5H952.732V0.5H942.76V5.5ZM962.703 5.5H972.675V0.5H962.703V5.5ZM982.647 5.5H992.619V0.5H982.647V5.5ZM1002.59 5.5H1012.56V0.5H1002.59V5.5ZM1022.53 5.5H1032.51V0.5H1022.53V5.5ZM1042.48 5.5H1052.45V0.5H1042.48V5.5ZM1062.42 5.5H1072.39V0.5H1062.42V5.5ZM1082.36 5.5H1092.34V0.5H1082.36V5.5ZM1102.31 5.5H1112.28V0.5H1102.31V5.5ZM1122.25 5.5H1132.22V0.5H1122.25V5.5ZM1142.2 5.5H1152.17V0.5H1142.2V5.5ZM1162.14 5.5H1172.11V0.5H1162.14V5.5ZM1182.08 5.5H1192.05V0.5H1182.08V5.5ZM1202.03 5.5H1212V0.5H1202.03V5.5ZM1221.97 5.5H1231.94V0.5H1221.97V5.5ZM1241.91 5.5H1251.89V0.5H1241.91V5.5ZM1261.86 5.5H1271.83V0.5H1261.86V5.5ZM1281.8 5.5H1291.77V0.5H1281.8V5.5ZM1301.74 5.5H1311.72V0.5H1301.74V5.5ZM1321.69 5.5H1331.66V0.5H1321.69V5.5ZM1341.63 5.5H1351.6V0.5H1341.63V5.5ZM1361.58 5.5H1371.55V0.5H1361.58V5.5ZM1381.52 5.5H1391.49V0.5H1381.52V5.5ZM1401.46 5.5H1411.43V0.5H1401.46V5.5ZM1421.41 5.5H1431.38V0.5H1421.41V5.5ZM1441.35 5.5H1451.32V0.5H1441.35V5.5ZM1461.29 5.5H1471.27V0.5H1461.29V5.5ZM1481.24 5.5H1491.21V0.5H1481.24V5.5ZM1501.18 5.5H1511.15V0.5H1501.18V5.5ZM1521.12 5.5H1531.1V0.5H1521.12V5.5ZM1541.07 5.5H1551.04V0.5H1541.07V5.5ZM1561.01 5.5H1566V0.5H1561.01V5.5ZM1563.5 3V8.03544H1568.5V3H1563.5ZM1563.5 18.1063V28.1772H1568.5V18.1063H1563.5ZM1563.5 38.248V48.3189H1568.5V38.248H1563.5ZM1563.5 58.3898V68.4607H1568.5V58.3898H1563.5ZM1563.5 78.5315V88.6024H1568.5V78.5315H1563.5ZM1563.5 98.6733V108.744H1568.5V98.6733H1563.5ZM1563.5 118.815V123.85H1568.5V118.815H1563.5Z" fill="#757575" fill-opacity="0.466667"/>
<path d="M1207 54V51.5H1204.5V54H1207ZM1205.23 135.768C1206.21 136.744 1207.79 136.744 1208.77 135.768L1224.68 119.858C1225.65 118.882 1225.65 117.299 1224.68 116.322C1223.7 115.346 1222.12 115.346 1221.14 116.322L1207 130.464L1192.86 116.322C1191.88 115.346 1190.3 115.346 1189.32 116.322C1188.35 117.299 1188.35 118.882 1189.32 119.858L1205.23 135.768ZM1209.5 134V129H1204.5V134H1209.5ZM1209.5 119V109H1204.5V119H1209.5ZM1209.5 99V89H1204.5V99H1209.5ZM1209.5 79V69H1204.5V79H1209.5ZM1209.5 59V54H1204.5V59H1209.5ZM1207 56.5H1212V51.5H1207V56.5ZM1222 56.5H1232V51.5H1222V56.5ZM1242 56.5H1252V51.5H1242V56.5ZM1262 56.5H1272V51.5H1262V56.5ZM1282 56.5H1292V51.5H1282V56.5ZM1302 56.5H1312V51.5H1302V56.5ZM1322 56.5H1332V51.5H1322V56.5ZM1342 56.5H1352V51.5H1342V56.5ZM1362 56.5H1372V51.5H1362V56.5ZM1382 56.5H1392V51.5H1382V56.5ZM1402 56.5H1412V51.5H1402V56.5ZM1422 56.5H1432V51.5H1422V56.5ZM1442 56.5H1452V51.5H1442V56.5ZM1462 56.5H1472V51.5H1462V56.5ZM1482 56.5H1492V51.5H1482V56.5ZM1502 56.5H1512V51.5H1502V56.5ZM1522 56.5H1532V51.5H1522V56.5ZM1542 56.5H1552V51.5H1542V56.5ZM1562 56.5H1567V51.5H1562V56.5Z" fill="#757575" fill-opacity="0.466667"/>
<path d="M24.96 679H5.6V625.64H23.76C29.12 625.64 38.08 626.36 44.96 633C51.2 639 52.4 646.68 52.4 652.44C52.4 659.48 50.64 665.72 45.44 670.92C41.2 675.16 34.08 679 24.96 679ZM19.44 637.4V667.24H22.24C25.6 667.24 30.32 666.92 33.92 663.4C35.68 661.72 38 658.36 38 652.44C38 647.48 36.48 643.24 33.84 640.76C30.56 637.72 26.24 637.4 22.8 637.4H19.44ZM97.945 662.12V663.48H71.305C71.305 665.4 72.025 667.96 73.545 669.48C74.345 670.28 75.945 671.24 78.825 671.24C79.145 671.24 81.385 671.16 82.985 670.28C83.785 669.8 84.665 669 85.225 667.88H97.465C96.905 669.88 95.785 672.68 93.145 675.24C90.505 677.8 86.345 680.2 78.585 680.2C73.865 680.2 68.185 679.16 63.785 674.76C61.465 672.44 58.505 668.04 58.505 661.24C58.505 655.24 60.745 650.44 63.865 647.4C66.825 644.52 71.465 642.2 78.505 642.2C82.665 642.2 88.025 643.08 92.265 647.08C97.305 651.88 97.945 658.12 97.945 662.12ZM71.705 656.12H86.185C85.865 654.76 85.065 653.24 84.105 652.28C82.425 650.6 80.105 650.36 78.825 650.36C76.665 650.36 74.985 650.92 73.625 652.28C72.745 653.24 71.945 654.52 71.705 656.12ZM103.098 676.04L107.658 667.16C109.178 668.28 111.018 669.24 112.778 669.8C114.378 670.36 116.378 670.68 117.738 670.68C118.698 670.68 120.218 670.44 121.018 669.72C121.578 669.16 121.658 668.68 121.658 668.04C121.658 667.48 121.578 666.92 121.018 666.44C120.218 665.72 118.938 665.48 117.658 665.16L114.298 664.36C112.538 663.96 109.978 663.32 108.058 661.24C106.698 659.8 105.738 657.8 105.738 655.08C105.738 651.64 107.098 648.44 109.098 646.36C111.818 643.56 116.618 642.04 121.898 642.04C127.178 642.04 131.258 643.48 133.338 644.36L129.018 652.52C127.258 651.72 124.618 650.76 122.298 650.76C121.018 650.76 120.138 651 119.338 651.48C118.618 651.88 118.218 652.44 118.218 653.24C118.218 654.36 118.938 654.92 119.738 655.24C120.938 655.72 121.978 655.72 123.978 656.28L126.298 656.92C127.978 657.4 130.538 658.68 131.578 659.72C133.338 661.4 134.298 664.2 134.298 666.84C134.298 671.16 132.458 674.04 130.698 675.72C126.538 679.88 120.458 680.2 117.498 680.2C114.298 680.2 109.258 679.8 103.098 676.04ZM140.884 643.24H153.684V679H140.884V643.24ZM140.084 628.36C140.084 624.36 143.284 621.16 147.284 621.16C151.284 621.16 154.484 624.36 154.484 628.36C154.484 632.36 151.284 635.56 147.284 635.56C143.284 635.56 140.084 632.36 140.084 628.36ZM189.809 643.24H202.609V676.76C202.609 682.12 202.129 687 197.729 691.56C193.169 696.2 187.169 697.32 181.969 697.32C175.329 697.32 169.809 695.64 165.249 691C163.169 688.84 161.809 686.68 161.329 683.56H175.569C176.049 685 177.329 687.24 181.569 687.24C183.569 687.24 185.569 686.84 187.249 685.24C189.409 683.24 189.809 680.68 189.809 678.6V675C185.809 679.24 181.969 679.72 179.089 679.72C172.529 679.72 168.289 677.16 165.889 674.68C162.689 671.4 160.929 666.52 160.929 661.64C160.929 656.04 163.089 650.92 166.209 647.64C169.649 644.04 174.449 642.2 179.169 642.2C181.409 642.2 186.049 642.68 189.809 646.92V643.24ZM182.209 652.84C180.049 652.84 178.209 653.56 176.529 655.24C174.689 657.16 174.049 659.32 174.049 661C174.049 663.08 174.929 665.24 176.529 666.84C178.209 668.52 180.369 669.16 182.289 669.16C184.289 669.16 186.529 668.28 188.049 666.76C189.649 665.16 190.449 662.84 190.449 661C190.449 659.16 189.409 656.68 187.889 655.16C186.449 653.72 184.369 652.84 182.209 652.84ZM211.431 679V643.24H224.231V647.72C227.751 643.08 232.471 642.44 235.591 642.44C239.271 642.44 243.191 643.32 246.151 646.28C249.191 649.32 249.511 652.36 249.511 656.28V679H236.711V660.92C236.711 658.84 236.791 655.72 235.111 653.96C233.911 652.68 232.311 652.44 231.031 652.44C229.031 652.44 227.351 653.16 226.311 654.12C225.031 655.32 224.231 657.64 224.231 659.8V679H211.431Z" fill="#3B847B"/>
<path d="M25.84 745.72H18.56V771H5.76V745.72H1.68V735.24H5.76V723.48H18.56V735.24H25.84V745.72ZM30.65 771V712.68H43.45V739.72C44.41 738.52 45.93 737.08 47.45 736.2C49.93 734.76 52.57 734.44 54.81 734.44C59.85 734.44 63.21 736.12 65.37 738.28C68.57 741.48 68.73 744.84 68.73 748.28V771H55.93V752.92C55.93 750.28 55.77 747.56 54.33 745.96C53.13 744.6 51.53 744.44 50.25 744.44C48.89 744.44 47.05 744.68 45.61 745.96C44.49 747 43.45 748.92 43.45 751.8V771H30.65ZM75.4156 735.24H88.2156V771H75.4156V735.24ZM74.6156 720.36C74.6156 716.36 77.8156 713.16 81.8156 713.16C85.8156 713.16 89.0156 716.36 89.0156 720.36C89.0156 724.36 85.8156 727.56 81.8156 727.56C77.8156 727.56 74.6156 724.36 74.6156 720.36ZM96.9 771V735.24H109.7V739.72C113.22 735.08 117.94 734.44 121.06 734.44C124.74 734.44 128.66 735.32 131.62 738.28C134.66 741.32 134.98 744.36 134.98 748.28V771H122.18V752.92C122.18 750.84 122.26 747.72 120.58 745.96C119.38 744.68 117.78 744.44 116.5 744.44C114.5 744.44 112.82 745.16 111.78 746.12C110.5 747.32 109.7 749.64 109.7 751.8V771H96.9ZM143.697 712.68H156.497V748.12L168.577 735.24H185.937L169.057 751.72L187.297 771H169.537L156.497 756.36V771H143.697V712.68ZM189.713 735.24H202.513V771H189.713V735.24ZM188.913 720.36C188.913 716.36 192.113 713.16 196.113 713.16C200.113 713.16 203.313 716.36 203.313 720.36C203.313 724.36 200.113 727.56 196.113 727.56C192.113 727.56 188.913 724.36 188.913 720.36ZM211.197 771V735.24H223.997V739.72C227.517 735.08 232.237 734.44 235.357 734.44C239.037 734.44 242.957 735.32 245.917 738.28C248.957 741.32 249.277 744.36 249.277 748.28V771H236.477V752.92C236.477 750.84 236.557 747.72 234.877 745.96C233.677 744.68 232.077 744.44 230.797 744.44C228.797 744.44 227.117 745.16 226.077 746.12C224.797 747.32 223.997 749.64 223.997 751.8V771H211.197ZM285.434 735.24H298.234V768.76C298.234 774.12 297.754 779 293.354 783.56C288.794 788.2 282.794 789.32 277.594 789.32C270.954 789.32 265.434 787.64 260.874 783C258.794 780.84 257.434 778.68 256.954 775.56H271.194C271.674 777 272.954 779.24 277.194 779.24C279.194 779.24 281.194 778.84 282.874 777.24C285.034 775.24 285.434 772.68 285.434 770.6V767C281.434 771.24 277.594 771.72 274.714 771.72C268.154 771.72 263.914 769.16 261.514 766.68C258.314 763.4 256.554 758.52 256.554 753.64C256.554 748.04 258.714 742.92 261.834 739.64C265.274 736.04 270.074 734.2 274.794 734.2C277.034 734.2 281.674 734.68 285.434 738.92V735.24ZM277.834 744.84C275.674 744.84 273.834 745.56 272.154 747.24C270.314 749.16 269.674 751.32 269.674 753C269.674 755.08 270.554 757.24 272.154 758.84C273.834 760.52 275.994 761.16 277.914 761.16C279.914 761.16 282.154 760.28 283.674 758.76C285.274 757.16 286.074 754.84 286.074 753C286.074 751.16 285.034 748.68 283.514 747.16C282.074 745.72 279.994 744.84 277.834 744.84Z" fill="#3B847B"/>
<path d="M4.4 858V822.24H17.2V826.56C20.24 822.88 24.4 821.6 27.92 821.6C30.48 821.6 32.88 822.16 34.8 823.2C37.44 824.56 38.88 826.56 39.76 828.32C41.2 825.76 43.04 824.24 44.64 823.36C47.2 821.92 49.68 821.6 52.08 821.6C54.72 821.6 59.04 822 62 824.88C65.2 828 65.36 832.24 65.36 834.72V858H52.56V840.32C52.56 836.56 52.16 834 50.72 832.64C50 832 49.04 831.44 47.36 831.44C45.92 831.44 44.72 831.84 43.6 832.88C41.44 834.96 41.28 837.92 41.28 839.68V858H28.48V840.32C28.48 836.88 28.24 834.16 26.8 832.64C25.68 831.44 24.24 831.2 22.96 831.2C21.6 831.2 20.48 831.44 19.44 832.48C17.2 834.64 17.2 838.08 17.2 840.32V858H4.4ZM94.3238 831.92C92.2438 831.92 90.0038 832.88 88.5638 834.24C86.9638 835.76 86.0838 838 86.0838 840.08C86.0838 842.24 87.1238 844.32 88.5638 845.76C90.0838 847.28 92.1638 848.16 94.3238 848.16C96.4038 848.16 98.4838 847.28 100.004 845.76C101.604 844.24 102.484 842.16 102.484 840.08C102.484 838.16 101.604 835.84 100.004 834.24C98.5638 832.88 96.3238 831.92 94.3238 831.92ZM115.764 840.08C115.764 844.88 114.164 849.44 110.244 853.28C105.524 857.92 100.004 859.2 94.2438 859.2C89.0438 859.2 83.2838 858.16 78.3238 853.28C74.4038 849.44 72.8038 844.88 72.8038 840.08C72.8038 833.68 75.6838 829.52 78.3238 826.96C81.2838 824.08 86.4838 821.04 94.2438 821.04C102.164 821.04 107.284 824.16 110.244 826.96C112.884 829.52 115.764 833.68 115.764 840.08ZM163.63 799.68V858H150.83V854.08C147.23 858.72 142.51 859.2 140.03 859.2C134.91 859.2 130.83 857.52 127.47 854.24C123.87 850.72 121.71 845.68 121.71 840C121.71 833.92 124.27 828.96 127.55 825.84C131.07 822.48 135.79 821.04 140.19 821.04C145.07 821.04 148.51 823.2 150.83 825.68V799.68H163.63ZM142.99 848.32C145.07 848.32 147.15 847.36 148.51 846.16C150.19 844.64 151.23 842.24 151.23 840.08C151.23 838.08 150.11 835.68 148.83 834.32C147.39 832.8 145.39 831.92 142.99 831.92C140.27 831.92 138.43 833.12 137.31 834.24C135.87 835.68 134.83 837.92 134.83 840.32C134.83 842.16 135.63 844.24 137.31 845.92C139.07 847.68 141.15 848.32 142.99 848.32ZM210.367 841.12V842.48H183.727C183.727 844.4 184.447 846.96 185.967 848.48C186.767 849.28 188.367 850.24 191.247 850.24C191.567 850.24 193.807 850.16 195.407 849.28C196.207 848.8 197.087 848 197.647 846.88H209.887C209.327 848.88 208.207 851.68 205.567 854.24C202.927 856.8 198.767 859.2 191.007 859.2C186.287 859.2 180.607 858.16 176.207 853.76C173.887 851.44 170.927 847.04 170.927 840.24C170.927 834.24 173.167 829.44 176.287 826.4C179.247 823.52 183.887 821.2 190.927 821.2C195.087 821.2 200.447 822.08 204.687 826.08C209.727 830.88 210.367 837.12 210.367 841.12ZM184.127 835.12H198.607C198.287 833.76 197.487 832.24 196.527 831.28C194.847 829.6 192.527 829.36 191.247 829.36C189.087 829.36 187.407 829.92 186.047 831.28C185.167 832.24 184.367 833.52 184.127 835.12ZM217.759 799.68H230.559V858H217.759V799.68Z" fill="#3B847B"/>
</svg>
